<svg width="227" height="37" viewBox="0 0 227 37" fill="none" xmlns="http://www.w3.org/2000/svg">
<circle cx="11" cy="11" r="11" fill="white" fill-opacity="0.2"/>
<circle cx="11" cy="11" r="10" stroke="#C86D01" stroke-opacity="0.76" stroke-width="2"/>
<path d="M33.2 4.472H42.928V10.024H33.2V4.472ZM41.792 9.048V7.736H34.336V9.048H41.792ZM34.336 6.792H41.792V5.464H34.336V6.792ZM37.6 12.264H30.928V11.208H45.088V12.264H38.768V14.072H43.376V15.096H38.768V17.224C39.536 17.288 40.464 17.336 41.52 17.336C42.896 17.336 44.064 17.32 45.008 17.288L44.688 18.376C43.536 18.376 42.512 18.36 41.6 18.344C38.96 18.344 37.168 18.136 36.224 17.736C35.408 17.368 34.672 16.664 34.032 15.608C33.408 16.792 32.608 17.768 31.648 18.552L30.896 17.608C32.368 16.424 33.376 14.824 33.904 12.824L34.992 13.016C34.832 13.608 34.656 14.168 34.448 14.696C35.12 15.816 35.888 16.52 36.72 16.824C36.976 16.904 37.264 16.984 37.6 17.048V12.264ZM47.552 4.68H60.512V5.8H55.408C55.152 6.152 54.864 6.504 54.576 6.824V12.12H53.424V7.928C51.92 9.176 49.952 10.28 47.52 11.256L46.8 10.312C50.224 9.048 52.656 7.544 54.096 5.8H47.552V4.68ZM59.312 12.68V18.536H58.144V17.784H49.888V18.536H48.72V12.68H59.312ZM49.888 16.664H58.144V13.8H49.888V16.664ZM56.256 7.224C58.176 8.312 59.776 9.416 61.072 10.52L60.24 11.368C59.088 10.312 57.504 9.176 55.488 7.96L56.256 7.224ZM63.664 7.176H66.576V3.848H67.744V7.176H72.256V3.912H73.424V7.176H76.352V8.296H73.424V12.152H77.136V13.272H62.864V12.152H66.576V8.296H63.664V7.176ZM67.744 12.152H72.256V8.296H67.744V12.152ZM67.744 13.832L68.608 14.616C67.264 16.12 65.616 17.448 63.664 18.568L62.864 17.544C64.8 16.488 66.432 15.24 67.744 13.832ZM72.384 13.864C74.272 15.128 75.84 16.392 77.12 17.64L76.224 18.552C75.088 17.336 73.536 16.04 71.552 14.664L72.384 13.864ZM81.216 7.32H90.8V10.552H81.216V7.32ZM89.696 9.56V8.312H82.32V9.56H89.696ZM85.824 3.896C86.08 4.312 86.32 4.76 86.544 5.272H92.944V6.36H79.056V5.272H85.28C85.04 4.856 84.784 4.456 84.512 4.104L85.824 3.896ZM78.704 14.6H85.712V13.976C86.704 13.592 87.872 13.128 89.216 12.568H80.256V11.528H91.488V12.36C90.144 12.984 88.592 13.624 86.848 14.296V14.6H93.296V15.656H86.848V17.144C86.848 18.104 86.368 18.6 85.424 18.6H83.168L82.864 17.544C83.76 17.592 84.464 17.624 84.976 17.624C85.456 17.624 85.712 17.352 85.712 16.808V15.656H78.704V14.6ZM104.048 18.072H100.48C99.36 18.072 98.816 17.528 98.816 16.456V7.272H99.968V16.216C99.968 16.696 100.256 16.936 100.832 16.936H103.84C104.224 16.936 104.496 16.776 104.656 16.472C104.848 16.088 104.992 14.968 105.072 13.096L106.16 13.464C106.032 15.656 105.808 16.984 105.472 17.464C105.168 17.864 104.688 18.072 104.048 18.072ZM96.448 8.984L97.552 9.208C97.104 11.96 96.464 14.328 95.632 16.312L94.64 15.688C95.472 13.656 96.064 11.416 96.448 8.984ZM106.752 8.488C107.776 10.568 108.656 12.776 109.424 15.128L108.368 15.608C107.536 13.064 106.624 10.808 105.632 8.856L106.752 8.488ZM100.992 3.992C102.464 5.544 103.6 6.904 104.384 8.072L103.424 8.728C102.592 7.48 101.472 6.088 100.032 4.584L100.992 3.992ZM124.72 4.536V5.528H119.52C119.424 5.896 119.296 6.248 119.152 6.584H123.552V11.112H119.904V12.616C119.904 13.432 119.456 13.848 118.576 13.848H117.328L117.104 12.856C117.488 12.904 117.872 12.936 118.224 12.936C118.592 12.936 118.784 12.744 118.784 12.36V11.112H114.8V6.584H117.984C118.144 6.232 118.272 5.88 118.368 5.528H113.024V10.76C112.96 13.976 112.464 16.552 111.52 18.488L110.656 17.72C111.424 16.04 111.824 13.72 111.856 10.76V4.536H124.72ZM122.448 10.248V9.192H115.92V10.248H122.448ZM115.92 8.424H122.448V7.4H115.92V8.424ZM120.56 18.44H117.424C116.48 18.44 116.016 18.008 116.016 17.16V14.52H117.136V16.952C117.136 17.24 117.328 17.4 117.744 17.4H120.352C120.608 17.4 120.784 17.336 120.88 17.208C121.024 17.048 121.12 16.568 121.168 15.768L122.208 16.104C122.112 17.192 121.936 17.88 121.664 18.136C121.44 18.328 121.072 18.44 120.56 18.44ZM114.368 14.648L115.328 15.112C114.816 16.344 114.224 17.416 113.552 18.312L112.64 17.656C113.312 16.824 113.888 15.816 114.368 14.648ZM118.928 14.296C119.584 15.064 120.096 15.736 120.448 16.328L119.632 16.888C119.28 16.248 118.784 15.56 118.144 14.792L118.928 14.296ZM122.816 14.264C123.84 15.48 124.624 16.552 125.184 17.464L124.256 18.12C123.68 17.128 122.912 16.024 121.92 14.824L122.816 14.264ZM116.144 11.48L116.864 12.12C116.096 12.872 115.136 13.544 114.016 14.12L113.344 13.24C114.448 12.728 115.376 12.152 116.144 11.48ZM121.456 11.528C122.704 11.992 123.84 12.552 124.864 13.224L124.24 14.184C123.152 13.4 122.048 12.792 120.912 12.344L121.456 11.528Z" fill="#C86D01"/>
</svg>
